<?xml version="1.0" standalone="no"?>
<!DOCTYPE svg PUBLIC "-//W3C//DTD SVG 20010904//EN"
 "http://www.w3.org/TR/2001/REC-SVG-20010904/DTD/svg10.dtd">
<svg version="1.0" xmlns="http://www.w3.org/2000/svg"
 width="64.000000pt" height="64.000000pt" viewBox="0 0 64.000000 64.000000"
 preserveAspectRatio="xMidYMid meet">

<g transform="translate(0.000000,64.000000) scale(0.100000,-0.100000)"
fill="#000000" stroke="none">
<path d="M55 535 c-25 -24 -25 -26 -25 -215 0 -189 0 -191 25 -215 l24 -25
219 0 c196 0 222 2 242 18 17 14 27 44 46 137 35 173 45 165 -195 165 -233 0
-225 4 -252 -130 -30 -149 -28 -143 -44 -130 -20 16 -22 339 -3 358 24 24 104
14 155 -18 43 -27 54 -30 134 -30 48 0 91 -4 94 -10 8 -13 55 -13 55 -1 0 49
-47 71 -152 71 -72 0 -88 3 -120 25 -31 21 -49 25 -108 25 -62 0 -74 -3 -95
-25z"/>
</g>
</svg>
